<svg id="Layer_1" data-name="Layer 1" xmlns="http://www.w3.org/2000/svg" viewBox="0 0 692 653.06"><defs><style>.cls-1{fill:#6fdef7;}.cls-2{fill:#fff;}.cls-3{font-size:216.8px;font-family:FranklinGothic-Heavy, Franklin Gothic Heavy;font-weight:800;}</style></defs><path class="cls-1" d="M145.36,58c9,0,25,2.46,49.66,14.17,21.54,10.21,45.31,25.32,70.63,44.89,26.18,20.23,53.1,44.55,80,72.27a1052.51,1052.51,0,0,1,81.42,94.84,1029.65,1029.65,0,0,1,80.76,122.48c21.76,39.05,38.53,76,49.86,109.88,21.55,64.39,17.93,103.33,4.78,113.36-3.63,2.77-9,4.17-15.85,4.17-9,0-25-2.46-49.66-14.16-21.55-10.22-45.31-25.33-70.64-44.9-26.17-20.23-53.1-44.54-80-72.26a1054.05,1054.05,0,0,1-81.42-94.85,1029.65,1029.65,0,0,1-80.76-122.48c-21.76-39-38.53-76-49.86-109.88-21.55-64.39-17.93-103.33-4.78-113.36,3.63-2.77,9-4.17,15.85-4.17h0m0-30c-13.39,0-24.89,3.34-34,10.32-58,44.21.12,217.82,129.74,387.76C350.2,569.16,475.26,664,546.65,664c13.39,0,24.89-3.34,34.05-10.32,58-44.21-.12-217.82-129.74-387.76C341.8,122.84,216.74,28,145.35,28Z" transform="translate(0 -27.97)"/><path class="cls-1" d="M546.65,75c6.89,0,12.22,1.4,15.85,4.17,13.15,10,16.77,49-4.78,113.36-11.33,33.86-28.1,70.83-49.86,109.88A1029.65,1029.65,0,0,1,427.1,424.86a1054.05,1054.05,0,0,1-81.42,94.85c-26.93,27.72-53.86,52-80,72.26-25.33,19.57-49.09,34.68-70.64,44.9C170.33,648.57,154.38,651,145.35,651c-6.89,0-12.22-1.4-15.85-4.17-13.15-10-16.77-49,4.78-113.36,11.33-33.86,28.1-70.83,49.86-109.88A1029.65,1029.65,0,0,1,264.9,301.14a1054.05,1054.05,0,0,1,81.42-94.85c26.93-27.72,53.86-52,80-72.26,25.33-19.57,49.09-34.68,70.64-44.9C521.67,77.43,537.62,75,546.65,75m0-30C475.26,45,350.2,139.84,241,283,111.42,452.89,53.34,626.5,111.3,670.71c9.16,7,20.66,10.32,34.05,10.32,71.39,0,196.45-94.87,305.61-238C580.58,273.11,638.66,99.5,580.7,55.29,571.54,48.31,560,45,546.65,45Z" transform="translate(0 -27.97)"/><rect class="cls-2" y="224.28" width="692" height="187.5" rx="32.48"/><text class="cls-3" transform="translate(45.09 394.55)">NEWS</text></svg>